PathFileType	4	(x/y/z)	S09_M20_T19
DataRate	CameraRate	NumFrames	NumMarkers	Units	OrigDataRate	OrigDataStartFrame	OrigNumFrames
240	240	8	51	mm	240	348	556
Frame#	Time	Sternum			R.Acromium			L.Acromium			Top.Head			R.ASIS			L.ASIS			R.PSIS			L.PSIS			R.Great.Tro			L.Great.Tro			R.Iliac.Crest			L.Iliac.Crest			V.Sacral			R.Thigh.Upper.Post			R.Thigh.Lower.Ant			R.Thigh.Lower.Post			R.Thigh.Upper.Ant			R.Knee.Lat			R.Knee.Med			R.Shank.Upper.Post			R.Shank.Lower.Ant			R.Shank.Lower.Post			R.Shank.Upper.Ant			R.Ankle.Lat			R.Ankle.Med			R.Heel.Upper			R.Heel.Med			R.Heel.Lat			R.Toe.Lat			R.Toe.Med			R.Toe.Tip			L.Thigh.Upper.Post			L.Thigh.Lower.Ant			L.Thigh.Lower.Post			L.Thigh.Upper.Ant			L.Knee.Lat			L.Knee.Med			L.Shank.Upper.Post			L.Shank.Lower.Ant			L.Shank.Lower.Post			L.Shank.Upper.Ant			L.Ankle.Lat			L.Ankle.Med			L.Heel.Upper			L.Heel.Med			L.Heel.Lat			L.Toe.Lat			L.Toe.Med			L.Toe.Tip			Cervical.Spine			Back			
		X1	Y1	Z1	X2	Y2	Z2	X3	Y3	Z3	X4	Y4	Z4	X5	Y5	Z5	X6	Y6	Z6	X7	Y7	Z7	X8	Y8	Z8	X9	Y9	Z9	X10	Y10	Z10	X11	Y11	Z11	X12	Y12	Z12	X13	Y13	Z13	X14	Y14	Z14	X15	Y15	Z15	X16	Y16	Z16	X17	Y17	Z17	X18	Y18	Z18	X19	Y19	Z19	X20	Y20	Z20	X21	Y21	Z21	X22	Y22	Z22	X23	Y23	Z23	X24	Y24	Z24	X25	Y25	Z25	X26	Y26	Z26	X27	Y27	Z27	X28	Y28	Z28	X29	Y29	Z29	X30	Y30	Z30	X31	Y31	Z31	X32	Y32	Z32	X33	Y33	Z33	X34	Y34	Z34	X35	Y35	Z35	X36	Y36	Z36	X37	Y37	Z37	X38	Y38	Z38	X39	Y39	Z39	X40	Y40	Z40	X41	Y41	Z41	X42	Y42	Z42	X43	Y43	Z43	X44	Y44	Z44	X45	Y45	Z45	X46	Y46	Z46	X47	Y47	Z47	X48	Y48	Z48	X49	Y49	Z49	X50	Y50	Z50	X51	Y51	Z51	

348	1.4458	1024.6	1153.7	305.84	872.06	1393.5	436.55	881.21	1381	123.23	882.92	1686.9	261.87	976.71	982.73	420.27	1019.3	988.28	173.72	772.52	1004.5	300.74	795.92	998.07	213.99	875.13	898.94	475.65	971.28	893.07	93.583	876.32	1060.2	448.93	904.07	1069.8	118.76	765.53	966.56	250.46	797.07	664.65	432.61	836.54	546.59	394.43	764.62	581.2	398.81	860.27	628.99	426.61	784.34	483.25	379.97	785.21	480.06	258.64	635.62	364.58	380.74	663.9	279.1	363.15	594.93	300.77	366.94	697.74	343.36	378.01	523.01	125.43	342.12	548.23	130.16	250.29	448.14	122.58	291.89	449.49	89.023	262.69	444.23	91.532	327.25	596.54	42.604	374.15	643.26	41.846	267.99	693.21	44.029	313.6	1022	632.69	135.97	1138.9	585.44	145.44	1075.4	560.73	157.83	1088.9	654.93	118.43	1161.3	511.7	156.46	1159.8	525.84	293.27	1173.6	371.41	143.95	1268.9	317.52	156.81	1206.8	301.84	150.19	1235	387.25	151.11	1311.4	129.61	172.1	1333.3	137.09	264.39	1280.8	55.302	229.68	1308.6	44.847	259.94	1296.6	32.889	200.78	1429.3	133.42	131.61	1465.4	163.63	236.32	1486.8	207.05	174.92	797.41	1435.5	285.4	762.64	1163.3	273.48
349	1.45	1030.7	1153.1	305.33	877.87	1392.8	435.94	886.97	1380.2	122.64	887.82	1686.1	261.11	982.68	981.83	419.97	1025.7	987.76	173.5	778.76	1003.9	300	802.27	997.52	213.26	880.7	898.15	475.04	978.08	892.66	93.21	882.3	1059.3	448.46	910.52	1069.3	118.32	771.82	966	249.64	801.93	664.27	432.08	841.03	545.97	394.3	769.26	580.9	398.28	865	628.34	426.39	788.59	482.81	379.84	789.79	479.4	258.47	639.02	365.33	380.54	666.57	279.58	363.12	597.8	301.86	366.77	700.95	343.56	377.92	524.38	127.05	342.13	549.8	131.43	250.39	449.54	124.98	291.86	450.56	91.431	262.63	445.3	93.879	327.18	596.88	42.903	374.09	643.66	41.907	268.03	693.44	43.913	313.63	1028.1	632.14	135.47	1144.8	584.62	145.59	1081.2	560.02	157.57	1095.1	654.26	118.38	1166.7	510.62	156.54	1164.9	524.89	293.17	1177.6	370.21	143.87	1272.4	315.3	157.15	1210.1	300.27	150.16	1239.2	385.4	151.39	1312.8	127.2	172.18	1334.5	134.11	264.62	1281.4	53.703	229.5	1309.1	42.917	259.76	1296.9	31.136	200.61	1430.6	130.27	131.89	1466.8	159.94	236.74	1488.5	203.43	175.44	803.08	1434.6	284.82	768.79	1162.4	273.01
350	1.4542	1036.9	1152.4	304.8	883.71	1392.2	435.31	892.76	1379.5	122.05	892.72	1685.3	260.34	988.72	980.93	419.65	1032.2	987.24	173.26	785.05	1003.2	299.25	808.67	996.97	212.53	886.35	897.36	474.43	984.93	892.25	92.834	888.35	1058.5	447.97	917.01	1068.9	117.86	778.16	965.43	248.81	806.88	663.89	431.54	845.61	545.35	394.18	773.99	580.59	397.76	869.81	627.68	426.18	792.93	482.37	379.72	794.47	478.73	258.33	642.52	366.09	380.35	669.31	280.07	363.12	600.75	302.98	366.63	704.24	343.77	377.86	525.81	128.7	342.16	551.44	132.76	250.51	451.01	127.46	291.82	451.7	93.926	262.57	446.42	96.301	327.12	597.24	43.218	374.03	644.08	41.965	268.08	693.66	43.805	313.66	1034.1	631.58	134.97	1150.6	583.74	145.71	1086.8	559.27	157.31	1101.3	653.54	118.3	1172	509.49	156.57	1169.9	523.89	293.04	1181.7	368.99	143.78	1275.9	313.11	157.47	1213.5	298.7	150.12	1243.3	383.55	151.65	1314.4	124.89	172.23	1335.8	131.22	264.82	1282.1	52.337	229.31	1309.6	41.201	259.58	1297.3	29.581	200.45	1431.9	127.13	132.16	1468.3	156.3	237.12	1490.3	199.82	175.91	808.76	1433.7	284.23	774.99	1161.4	272.54
351	1.4583	1043.1	1151.8	304.27	889.56	1391.5	434.68	898.57	1378.8	121.45	897.62	1684.6	259.57	994.83	980.05	419.33	1038.7	986.71	173.01	791.39	1002.6	298.5	815.11	996.43	211.79	892.07	896.57	473.82	991.82	891.84	92.454	894.47	1057.6	447.48	923.54	1068.4	117.39	784.56	964.86	247.99	811.92	663.5	431	850.29	544.72	394.08	778.82	580.27	397.25	874.71	627.02	425.98	797.37	481.92	379.62	799.26	478.03	258.21	646.11	366.88	380.18	672.14	280.59	363.15	603.79	304.13	366.5	707.62	343.98	377.81	527.3	130.41	342.22	553.16	134.12	250.65	452.57	130.02	291.8	452.91	96.509	262.51	447.62	98.801	327.06	597.62	43.548	373.98	644.52	42.02	268.15	693.89	43.706	313.68	1040	631	134.47	1156.3	582.8	145.8	1092.4	558.49	157.04	1107.4	652.78	118.2	1177.2	508.32	156.57	1174.8	522.84	292.87	1185.7	367.75	143.67	1279.4	310.98	157.75	1216.8	297.15	150.06	1247.5	381.73	151.88	1316	122.68	172.26	1337.3	128.45	265	1282.9	51.216	229.12	1310.1	39.707	259.4	1297.7	28.236	200.29	1433.4	124.01	132.42	1469.9	152.7	237.47	1492.2	196.2	176.32	814.46	1432.8	283.62	781.23	1160.5	272.04
352	1.4625	1049.3	1151.2	303.72	895.42	1390.9	434.03	904.4	1378	120.83	902.52	1683.9	258.79	1001	979.18	418.98	1045.2	986.18	172.74	797.77	1002	297.76	821.58	995.9	211.05	897.87	895.79	473.2	998.75	891.44	92.067	900.66	1056.8	446.97	930.11	1067.9	116.91	790.99	964.29	247.17	817.06	663.12	430.46	855.06	544.08	394	783.74	579.94	396.75	879.7	626.37	425.8	801.9	481.47	379.54	804.16	477.32	258.11	649.81	367.68	380.04	675.04	281.13	363.2	606.93	305.3	366.39	711.1	344.21	377.8	528.87	132.16	342.29	554.96	135.53	250.81	454.23	132.65	291.78	454.21	99.181	262.44	448.89	101.38	327	598.03	43.895	373.92	644.97	42.071	268.22	694.12	43.616	313.7	1045.9	630.43	133.97	1162	581.81	145.85	1097.9	557.7	156.76	1113.5	651.99	118.07	1182.3	507.12	156.51	1179.7	521.75	292.66	1189.7	366.52	143.55	1282.9	308.9	158	1220.3	295.63	149.99	1251.6	379.95	152.08	1317.8	120.58	172.27	1338.9	125.8	265.14	1283.7	50.343	228.91	1310.7	38.435	259.22	1298.2	27.107	200.14	1435	120.89	132.67	1471.6	149.13	237.79	1494.3	192.58	176.68	820.18	1432	283	787.51	1159.5	271.53
353	1.4667	1055.6	1150.7	303.17	901.31	1390.2	433.37	910.25	1377.3	120.2	907.42	1683.1	258.01	1007.2	978.31	418.62	1051.7	985.65	172.46	804.21	1001.3	297.02	828.08	995.37	210.31	903.74	895	472.57	1005.7	891.05	91.671	906.92	1055.9	446.45	936.72	1067.5	116.42	797.47	963.72	246.36	822.29	662.72	429.92	859.93	543.44	393.94	788.76	579.6	396.26	884.78	625.7	425.62	806.55	481.01	379.48	809.16	476.58	258.04	653.6	368.49	379.91	678.04	281.69	363.28	610.16	306.51	366.31	714.67	344.45	377.81	530.52	133.95	342.38	556.85	136.98	251	455.98	135.36	291.77	455.6	101.94	262.37	450.23	104.04	326.93	598.45	44.26	373.87	645.44	42.116	268.3	694.34	43.534	313.72	1051.7	629.86	133.46	1167.6	580.79	145.86	1103.3	556.9	156.46	1119.5	651.17	117.92	1187.3	505.91	156.4	1184.6	520.63	292.41	1193.8	365.31	143.4	1286.5	306.91	158.22	1223.7	294.15	149.9	1255.7	378.22	152.24	1319.8	118.62	172.25	1340.6	123.28	265.26	1284.7	49.719	228.7	1311.4	37.381	259.04	1298.8	26.196	200	1436.6	117.8	132.92	1473.5	145.59	238.09	1496.5	188.95	176.98	825.91	1431.1	282.37	793.83	1158.6	271.01
354	1.4708	1061.9	1150.1	302.6	907.21	1389.6	432.7	916.11	1376.6	119.56	912.33	1682.4	257.23	1013.6	977.46	418.25	1058.3	985.13	172.15	810.68	1000.7	296.3	834.61	994.86	209.58	909.7	894.21	471.95	1012.7	890.69	91.262	913.24	1055.1	445.92	943.35	1067.1	115.92	803.99	963.15	245.56	827.63	662.31	429.38	864.9	542.8	393.89	793.89	579.24	395.78	889.96	625.04	425.46	811.3	480.53	379.44	814.29	475.82	258	657.51	369.33	379.81	681.13	282.28	363.38	613.49	307.74	366.24	718.34	344.7	377.84	532.25	135.79	342.48	558.84	138.47	251.2	457.84	138.14	291.77	457.09	104.8	262.29	451.66	106.77	326.86	598.9	44.643	373.83	645.93	42.154	268.38	694.56	43.46	313.74	1057.5	629.31	132.95	1173.1	579.74	145.82	1108.6	556.11	156.13	1125.4	650.35	117.74	1192.2	504.7	156.24	1189.4	519.49	292.11	1197.8	364.12	143.25	1290.1	305.01	158.39	1227.3	292.72	149.79	1259.9	376.57	152.36	1321.9	116.78	172.21	1342.5	120.92	265.35	1285.9	49.338	228.49	1312.2	36.54	258.86	1299.4	25.499	199.86	1438.4	114.71	133.16	1475.4	142.08	238.37	1498.9	185.28	177.23	831.65	1430.3	281.73	800.19	1157.6	270.47
355	1.475	1068.3	1149.6	302.03	913.12	1389	432.03	921.99	1376	118.91	917.24	1681.7	256.44	1019.9	976.63	417.85	1064.9	984.62	171.81	817.19	1000	295.59	841.15	994.38	208.86	915.74	893.42	471.32	1019.7	890.36	90.839	919.63	1054.3	445.39	950.01	1066.7	115.41	810.53	962.59	244.77	833.06	661.9	428.85	869.99	542.14	393.86	799.12	578.87	395.31	895.24	624.37	425.3	816.17	480.05	379.42	819.52	475.05	257.99	661.52	370.17	379.72	684.32	282.88	363.51	616.94	309	366.19	722.11	344.95	377.9	534.07	137.67	342.61	560.92	140	251.44	459.81	140.99	291.77	458.68	107.74	262.2	453.18	109.6	326.78	599.37	45.047	373.79	646.43	42.183	268.48	694.78	43.394	313.75	1063.3	628.8	132.43	1178.6	578.7	145.72	1113.9	555.34	155.78	1131.3	649.53	117.52	1197.1	503.52	156.03	1194.1	518.36	291.77	1202	362.99	143.07	1293.8	303.22	158.52	1230.9	291.37	149.66	1264.1	374.99	152.43	1324.2	115.07	172.14	1344.6	118.7	265.41	1287.1	49.185	228.28	1313	35.901	258.69	1300	25.007	199.72	1440.3	111.63	133.41	1477.5	138.58	238.63	1501.5	181.59	177.45	837.39	1429.4	281.07	806.59	1156.6	269.93
